<svg width="20" height="20" viewBox="0 0 20 20" fill="none" xmlns="http://www.w3.org/2000/svg">
<path d="M5.50379 12.304C5.32776 12.1279 5.23975 11.9069 5.23975 11.6409C5.23975 11.3749 5.32776 11.1539 5.50379 10.9779L9.33712 7.14454C9.43041 7.05123 9.53314 6.9839 9.64531 6.94254C9.75748 6.90117 9.87576 6.88049 10.0002 6.88049C10.1246 6.88049 10.2429 6.90117 10.355 6.94254C10.4672 6.9839 10.5699 7.05123 10.6632 7.14454L14.5174 10.9987C14.6934 11.1747 14.7806 11.3896 14.7789 11.6434C14.7773 11.8972 14.6831 12.1174 14.4965 12.304C14.3205 12.48 14.0995 12.568 13.8335 12.568C13.5675 12.568 13.3465 12.48 13.1705 12.304L10.0002 9.13366L6.80904 12.3248C6.63301 12.5008 6.41811 12.588 6.16433 12.5863C5.91057 12.5847 5.69039 12.4905 5.50379 12.304Z" fill="#617DDA"/>
</svg>
