<svg width="20" height="20" viewBox="0 0 20 20" fill="none" xmlns="http://www.w3.org/2000/svg">
<path d="M10.0002 12.5679C9.87583 12.5679 9.75755 12.5473 9.64538 12.5059C9.53321 12.4645 9.43048 12.3972 9.33719 12.3039L5.48302 8.44973C5.307 8.2737 5.22245 8.05616 5.2294 7.79711C5.23634 7.53805 5.32783 7.32051 5.50386 7.14448C5.67989 6.96846 5.9009 6.88044 6.1669 6.88044C6.4329 6.88044 6.65391 6.96846 6.82994 7.14448L10.0002 10.3148L13.1914 7.12365C13.3674 6.94762 13.5849 6.86308 13.844 6.87002C14.103 6.87697 14.3206 6.96846 14.4966 7.14448C14.6726 7.32051 14.7606 7.54152 14.7606 7.80752C14.7606 8.07352 14.6726 8.29454 14.4966 8.47057L10.6633 12.3039C10.57 12.3972 10.4673 12.4645 10.3551 12.5059C10.2429 12.5473 10.1246 12.5679 10.0002 12.5679Z" fill="#617DDA"/>
</svg>
